<svg width="48" height="48" viewBox="0 0 48 48" fill="none" xmlns="http://www.w3.org/2000/svg">
<g clip-path="url(#clip0_32_1736)">
<path d="M33.9375 0H14.0625C6.29625 0 0 6.29625 0 14.0625V33.9375C0 41.7038 6.29625 48 14.0625 48H33.9375C41.7038 48 48 41.7038 48 33.9375V14.0625C48 6.29625 41.7038 0 33.9375 0ZM36.0422 23.835C36.0422 26.4234 33.9431 28.5225 31.3547 28.5225H19.9603L21.6038 30.1659C22.5188 31.0809 22.5188 32.565 21.6038 33.4809C20.6887 34.3959 19.2047 34.3959 18.2887 33.4809L12.6441 27.8363C11.7291 26.9213 11.7291 25.4372 12.6441 24.5212L18.2887 18.8766C19.2038 17.9616 20.6878 17.9616 21.6038 18.8766C22.5188 19.7916 22.5188 21.2756 21.6038 22.1916L19.9603 23.835H30.1828C30.8297 23.835 31.3547 23.31 31.3547 22.6631V16.1766C31.3547 14.8819 32.4038 13.8328 33.6984 13.8328C34.9931 13.8328 36.0422 14.8819 36.0422 16.1766V23.835Z" fill="url(#paint0_linear_32_1736)"/>
</g>
<defs>
<linearGradient id="paint0_linear_32_1736" x1="9.33326" y1="5.95591e-07" x2="35.3334" y2="47.9998" gradientUnits="userSpaceOnUse">
<stop stop-color="#2764E0"/>
<stop offset="1" stop-color="#DD0858"/>
</linearGradient>
<clipPath id="clip0_32_1736">
<rect width="48" height="48" fill="white"/>
</clipPath>
</defs>
</svg>
