<svg width="48" height="48" viewBox="0 0 48 48" fill="none" xmlns="http://www.w3.org/2000/svg">
<path d="M27.0032 15.9601H21.9665V22.0292H27.0032C28.6764 22.0292 30.0377 20.6679 30.0377 18.9947C30.0377 17.3215 28.6765 15.9601 27.0032 15.9601Z" fill="url(#paint0_linear_32_1356)"/>
<path d="M39.5528 8.44714C30.9573 -0.148403 17.044 -0.149693 8.44723 8.44714C-0.148389 17.0426 -0.149765 30.9561 8.44723 39.5529C17.0428 48.1484 30.9561 48.1497 39.5528 39.5529C48.1484 30.9574 48.1497 17.0439 39.5528 8.44714ZM26.7529 25.8066H22.1359V27.6993H25.8352C26.833 27.6993 27.6419 28.5081 27.6419 29.5059C27.6419 30.5037 26.833 31.3125 25.8352 31.3125H22.1359V33.1765C22.1359 34.1743 21.3271 34.9832 20.3293 34.9832C19.3315 34.9832 18.5227 34.1743 18.5227 33.1765V31.3125H16.6587C15.661 31.3125 14.8521 30.5037 14.8521 29.5059C14.8521 28.5081 15.661 27.6993 16.6587 27.6993H18.5227V25.8066H16.6587C15.661 25.8066 14.8521 24.9977 14.8521 24C14.8521 23.0022 15.661 22.1933 16.6587 22.1933H18.5227V14.8234C18.5227 13.8256 19.3315 13.0167 20.3293 13.0167H26.7529C30.279 13.0167 33.1478 15.8855 33.1478 19.4116C33.1478 22.9379 30.2791 25.8066 26.7529 25.8066Z" fill="url(#paint1_linear_32_1356)"/>
<defs>
<linearGradient id="paint0_linear_32_1356" x1="10.5555" y1="2" x2="34.3889" y2="45.9998" gradientUnits="userSpaceOnUse">
<stop stop-color="#2764E0"/>
<stop offset="1" stop-color="#DD0858"/>
</linearGradient>
<linearGradient id="paint1_linear_32_1356" x1="10.5555" y1="2" x2="34.3889" y2="45.9998" gradientUnits="userSpaceOnUse">
<stop stop-color="#2764E0"/>
<stop offset="1" stop-color="#DD0858"/>
</linearGradient>
</defs>
</svg>
