<svg width="48" height="48" viewBox="0 0 48 48" fill="none" xmlns="http://www.w3.org/2000/svg">
<path d="M24 2.5C19.7477 2.5 15.5909 3.76095 12.0552 6.1234C8.51959 8.48585 5.76388 11.8437 4.1366 15.7723C2.50932 19.7009 2.08354 24.0239 2.91313 28.1944C3.74271 32.365 5.79038 36.196 8.79721 39.2028C11.804 42.2096 15.635 44.2573 19.8056 45.0869C23.9762 45.9165 28.2991 45.4907 32.2277 43.8634C36.1563 42.2361 39.5142 39.4804 41.8766 35.9448C44.2391 32.4091 45.5 28.2523 45.5 24C45.4947 18.2995 43.2278 12.8339 39.197 8.80305C35.1661 4.77217 29.7005 2.5053 24 2.5ZM15.38 15.38C15.7021 15.0516 16.0865 14.7908 16.5106 14.6127C16.9347 14.4347 17.39 14.343 17.85 14.343C18.31 14.343 18.7653 14.4347 19.1894 14.6127C19.6136 14.7908 19.9979 15.0516 20.32 15.38C20.6786 15.6962 20.9687 16.0825 21.1722 16.5152C21.3758 16.9478 21.4885 17.4175 21.5035 17.8954C21.5185 18.3733 21.4355 18.8492 21.2594 19.2937C21.0834 19.7383 20.8182 20.142 20.4801 20.4801C20.142 20.8182 19.7383 21.0834 19.2937 21.2594C18.8492 21.4355 18.3733 21.5185 17.8954 21.5035C17.4175 21.4885 16.9478 21.3758 16.5152 21.1722C16.0826 20.9687 15.6962 20.6786 15.38 20.32C15.0516 19.9979 14.7908 19.6135 14.6127 19.1894C14.4347 18.7653 14.343 18.31 14.343 17.85C14.343 17.39 14.4347 16.9347 14.6127 16.5106C14.7908 16.0865 15.0516 15.7021 15.38 15.38ZM19.38 32.94C19.1938 33.1757 18.9568 33.3664 18.6867 33.498C18.4167 33.6296 18.1204 33.6986 17.82 33.7C17.4415 33.7013 17.0705 33.5952 16.7499 33.394C16.4294 33.1927 16.1725 32.9047 16.0091 32.5633C15.8457 32.2219 15.7826 31.8412 15.827 31.4653C15.8714 31.0895 16.0216 30.7339 16.26 30.44L28.6 15.06C28.93 14.6479 29.4095 14.383 29.9341 14.3231C30.4586 14.2631 30.9855 14.413 31.4 14.74C31.6069 14.9036 31.7795 15.1065 31.9077 15.3371C32.0358 15.5676 32.1171 15.8213 32.1469 16.0834C32.1766 16.3455 32.1542 16.6109 32.081 16.8643C32.0077 17.1178 31.885 17.3542 31.72 17.56L19.38 32.94ZM32.6 32.62C32.2779 32.9484 31.8936 33.2092 31.4694 33.3873C31.0453 33.5653 30.59 33.657 30.13 33.657C29.67 33.657 29.2147 33.5653 28.7906 33.3873C28.3665 33.2092 27.9821 32.9484 27.66 32.62C27.0712 31.9522 26.759 31.0852 26.787 30.1954C26.8149 29.3056 27.1809 28.4599 27.8104 27.8304C28.4399 27.2009 29.2856 26.8349 30.1754 26.807C31.0652 26.779 31.9323 27.0912 32.6 27.68C32.9297 28.0008 33.1921 28.3841 33.3719 28.8075C33.5516 29.2308 33.6452 29.6858 33.6471 30.1458C33.6489 30.6058 33.5591 31.0615 33.3827 31.4863C33.2064 31.9112 32.9471 32.2966 32.62 32.62H32.6Z" fill="url(#paint0_linear_32_458)"/>
<defs>
<linearGradient id="paint0_linear_32_458" x1="10.861" y1="2.5" x2="34.1528" y2="45.4999" gradientUnits="userSpaceOnUse">
<stop stop-color="#2764E0"/>
<stop offset="1" stop-color="#DD0858"/>
</linearGradient>
</defs>
</svg>
