<svg width="48" height="48" viewBox="0 0 48 48" fill="none" xmlns="http://www.w3.org/2000/svg">
<g clip-path="url(#clip0_32_88)">
<path d="M43.6258 6.34113L24.8431 0.0802266C24.521 -0.0267422 24.1746 -0.0267422 23.8526 0.0802266L5.06997 6.34113C4.43106 6.55413 4 7.15226 4 7.82595V20.3753C3.99991 38.3368 19.9877 48 24.3479 48C27.4762 48 44.6958 39.4966 44.6958 20.3752V7.82585C44.6958 7.15226 44.2647 6.55404 43.6258 6.34113ZM38.4348 20.3787C38.4348 33.9787 26.6625 41.2846 24.3478 41.2872V6.61498C24.8148 6.61591 36.9206 10.7009 37.3638 10.8482C38.0027 11.0606 38.4348 11.6593 38.4348 12.3334L38.4348 20.3787Z" fill="url(#paint0_linear_32_88)"/>
</g>
<defs>
<linearGradient id="paint0_linear_32_88" x1="11.913" y1="5.95591e-07" x2="40.0802" y2="44.0875" gradientUnits="userSpaceOnUse">
<stop stop-color="#2764E0"/>
<stop offset="1" stop-color="#DD0858"/>
</linearGradient>
<clipPath id="clip0_32_88">
<rect width="48" height="48" fill="white"/>
</clipPath>
</defs>
</svg>
