<svg width="48" height="48" viewBox="0 0 48 48" fill="none" xmlns="http://www.w3.org/2000/svg">
<path d="M13.7069 13.7065C6.9318 15.76 2 22.054 2 29.4996C2 38.6124 9.3873 45.9996 18.5 45.9996C25.9458 45.9996 32.2396 41.0678 34.293 34.2928C32.7762 34.7524 31.167 34.9996 29.5 34.9996C28.158 34.9996 26.8534 34.8394 25.6044 34.537C24.0262 36.7586 21.4324 38.208 18.5 38.208C13.6905 38.208 9.79166 34.3092 9.79166 29.4996C9.79166 26.5672 11.2411 23.9734 13.4626 22.3954C13.1602 21.1462 13 19.8416 13 18.4996C13 16.8326 13.2472 15.2234 13.7069 13.7065Z" fill="url(#paint0_linear_32_442)"/>
<path opacity="0.44" d="M13.4618 22.3955C14.9101 28.3791 19.62 33.0889 25.6035 34.5373C24.0255 36.7587 21.4317 38.2081 18.4994 38.2081C13.6899 38.2081 9.79102 34.3091 9.79102 29.4997C9.79102 26.5673 11.2404 23.9735 13.4618 22.3955Z" fill="white"/>
<path d="M29.5 1C19.8351 1 12 8.83501 12 18.5C12 28.1649 19.8351 36 29.5 36C39.1649 36 47 28.1649 47 18.5C47 8.83501 39.1649 1 29.5 1ZM37.2084 18.5C37.2084 22.7571 33.7571 26.2084 29.5 26.2084C25.2429 26.2084 21.7916 22.7571 21.7916 18.5C21.7916 14.2428 25.2429 10.7917 29.5 10.7917C33.7571 10.7917 37.2084 14.2428 37.2084 18.5Z" fill="url(#paint1_linear_32_442)" stroke="white" stroke-width="2"/>
<path opacity="0.35" d="M38.2076 18.4994C38.2076 23.3088 34.3088 27.2078 29.4992 27.2078C24.6898 27.2078 20.791 23.3088 20.791 18.4994C20.791 13.6899 24.6898 9.79102 29.4992 9.79102C34.3088 9.79102 38.2076 13.6899 38.2076 18.4994Z" fill="white"/>
<defs>
<linearGradient id="paint0_linear_32_442" x1="8.27914" y1="13.7065" x2="25.7713" y2="45.9994" gradientUnits="userSpaceOnUse">
<stop stop-color="#2764E0"/>
<stop offset="1" stop-color="#DD0858"/>
</linearGradient>
<linearGradient id="paint1_linear_32_442" x1="19.4166" y1="2" x2="37.2917" y2="34.9999" gradientUnits="userSpaceOnUse">
<stop stop-color="#2764E0"/>
<stop offset="1" stop-color="#DD0858"/>
</linearGradient>
</defs>
</svg>
