<svg width="44" height="44" viewBox="0 0 44 44" fill="none" xmlns="http://www.w3.org/2000/svg">
<g clip-path="url(#clip0_32_742)">
<path d="M24.5938 43.0654C25.3559 43.0644 26.1183 43.0633 26.8812 43.0633C28.0655 42.9569 29.4517 43.0127 30.8962 43.0709C35.6367 43.2618 41.0048 43.4779 41.9203 38.0703C42.1648 35.6488 42.5246 33.2341 42.8845 30.8193C43.3344 27.8009 43.7842 24.7825 44.0086 21.7508C44.0773 18.932 42.0578 16.775 39.5656 16.6977L39.5635 16.6976C36.1955 16.5859 32.8274 16.4742 29.4594 16.3539C28.172 16.4739 28.5642 15.2731 29.2031 13.3176C29.9374 11.07 30.9975 7.8253 30.207 4.44298C30.0094 1.54688 24.9219 -1.02265 24.0539 2.71563C23.3836 10.6906 19.4906 14.1109 13.8188 19.0695C13.0023 19.8086 12.5898 20.6422 12.5984 21.7508C12.6026 22.9634 12.6114 24.1761 12.6201 25.3886C12.6474 29.1599 12.6746 32.9301 12.5641 36.6953C12.4008 39.4969 14.1367 41.3016 16.3195 42.6164C16.7578 42.8484 17.2648 43.0375 17.7375 43.0461C20.0254 43.0719 22.3084 43.0687 24.5938 43.0654Z" fill="url(#paint0_linear_32_742)"/>
<path d="M8.9375 18.7688H1.5125C0.678906 18.7688 0 19.4477 0 20.2899V41.2758C0 42.118 0.678906 42.7969 1.5125 42.7883H8.9375C9.77109 42.7883 10.45 42.1094 10.45 41.2758V20.2813C10.45 19.4477 9.77109 18.7688 8.9375 18.7688Z" fill="url(#paint1_linear_32_742)"/>
</g>
<defs>
<linearGradient id="paint0_linear_32_742" x1="8.55749" y1="0.851563" x2="30.9605" y2="43.891" gradientUnits="userSpaceOnUse">
<stop stop-color="#2764E0"/>
<stop offset="1" stop-color="#DD0858"/>
</linearGradient>
<linearGradient id="paint1_linear_32_742" x1="8.55749" y1="0.851563" x2="30.9605" y2="43.891" gradientUnits="userSpaceOnUse">
<stop stop-color="#2764E0"/>
<stop offset="1" stop-color="#DD0858"/>
</linearGradient>
<clipPath id="clip0_32_742">
<rect width="44" height="44" fill="white"/>
</clipPath>
</defs>
</svg>
