<svg width="48" height="48" viewBox="0 0 48 48" fill="none" xmlns="http://www.w3.org/2000/svg">
<g clip-path="url(#clip0_32_80)">
<path d="M41.9727 15.5681C41.5323 14.864 40.5918 14.7015 39.9361 15.189L35.3726 18.6127C34.8013 19.0425 34.642 19.8336 35.0046 20.4502C36.1622 22.4209 36.75 24.5303 36.75 26.7207C36.75 33.6998 31.0728 39.5625 24.0938 39.5625C17.1147 39.5625 11.4375 33.6998 11.4375 26.7207C11.4375 20.2167 16.3676 14.8444 22.6875 14.1427V18.2832C22.6875 19.4488 24.0249 20.0979 24.9369 19.4079L36.1869 10.9704C36.9375 10.4089 36.9364 9.28156 36.1869 8.72093L24.9369 0.283434C24.0217 -0.409659 22.6875 0.246216 22.6875 1.40815V5.67359C11.7094 6.40006 3 15.5626 3 26.7207C3 38.3525 12.462 48 24.0938 48C35.7255 48 45.1875 38.3525 45.1875 26.7207C45.1875 22.7848 44.0752 18.9286 41.9727 15.5681Z" fill="url(#paint0_linear_32_80)"/>
</g>
<defs>
<linearGradient id="paint0_linear_32_80" x1="11.2031" y1="5.95592e-07" x2="38.9327" y2="44.9936" gradientUnits="userSpaceOnUse">
<stop stop-color="#2764E0"/>
<stop offset="1" stop-color="#DD0858"/>
</linearGradient>
<clipPath id="clip0_32_80">
<rect width="48" height="48" fill="white"/>
</clipPath>
</defs>
</svg>
