<svg width="81" height="54" viewBox="0 0 81 54" fill="none" xmlns="http://www.w3.org/2000/svg">
<circle cx="67" cy="27" r="12.5" fill="url(#paint0_linear_32_41)" stroke="white" stroke-width="3"/>
<circle cx="51" cy="27" r="17.5" fill="url(#paint1_linear_32_41)" stroke="white" stroke-width="3"/>
<path d="M34.4277 26.0999L31.8671 23.5393L28.7639 20.4361C28.6803 20.3526 28.614 20.2533 28.5688 20.1442C28.5236 20.035 28.5004 19.9181 28.5004 19.7999C28.5004 19.6818 28.5236 19.5648 28.5688 19.4557L28.5688 19.4557C28.614 19.3466 28.6803 19.2474 28.7638 19.1638C28.7638 19.1638 28.7639 19.1638 28.7639 19.1637M34.4277 26.0999L28.4817 17.583C28.1906 17.7036 27.926 17.8803 27.7032 18.1031L28.7639 19.1637M34.4277 26.0999H30.8064M34.4277 26.0999H30.8064M28.7639 19.1637C28.8475 19.0802 28.9466 19.014 29.0557 18.9688M28.7639 19.1637L29.0557 18.9688M29.0557 18.9688C29.1649 18.9236 29.2818 18.9003 29.4 18.9003C29.5181 18.9003 29.6351 18.9236 29.7442 18.9687M29.0557 18.9688L16.7637 26.3634C16.5948 26.5324 16.5 26.7614 16.5 26.9999C16.5 27.2384 16.5947 27.4674 16.7639 27.6367C16.9326 27.8052 17.1615 27.9 17.4 27.9H30.8064H34.4277L31.8671 30.4607L28.7639 33.5639L28.7636 33.5641C28.6802 33.6475 28.614 33.7465 28.5688 33.8556C28.5235 33.9651 28.5004 34.0821 28.5004 34.2C28.5004 34.3181 28.5236 34.4351 28.5688 34.5442C28.6139 34.6531 28.6801 34.7523 28.7639 34.8362C28.8478 34.9199 28.9469 34.986 29.0553 35.0309L29.0562 35.0313C29.1646 35.0762 29.2814 35.0995 29.4 35.0995C29.5186 35.0995 29.6354 35.0762 29.7438 35.0313L29.7447 35.0309C29.8533 34.986 29.9525 34.9197 30.0364 34.8359L37.2361 27.6361L37.2389 27.6333C37.3227 27.55 37.3889 27.4514 37.434 27.3429L37.4341 27.3426C37.4792 27.2342 37.5025 27.1177 37.5025 26.9999C37.5025 26.8822 37.4792 26.7657 37.4341 26.6572C37.3888 26.5484 37.3226 26.4498 37.2392 26.3669L37.2361 26.3638L30.0361 19.1638L31.0463 18.1536L30.0361 19.1638C29.9526 19.0803 29.8534 19.014 29.7442 18.9687M29.7442 18.9687L30.3183 17.583L29.7443 18.9688C29.7443 18.9688 29.7442 18.9688 29.7442 18.9687ZM30.8064 26.0999H17.4C17.1613 26.0999 16.9323 26.1948 16.7637 26.3634L30.8064 26.0999ZM27 1.5C41.062 1.5 52.5 12.938 52.5 27C52.5 41.062 41.062 52.5 27 52.5C12.938 52.5 1.5 41.062 1.5 27C1.5 12.938 12.938 1.5 27 1.5Z" fill="url(#paint2_linear_32_41)" stroke="white" stroke-width="3"/>
<defs>
<linearGradient id="paint0_linear_32_41" x1="60.2777" y1="16" x2="72.1945" y2="37.9999" gradientUnits="userSpaceOnUse">
<stop stop-color="#2764E0"/>
<stop offset="1" stop-color="#DD0858"/>
</linearGradient>
<linearGradient id="paint1_linear_32_41" x1="41.2222" y1="11" x2="58.5556" y2="42.9999" gradientUnits="userSpaceOnUse">
<stop stop-color="#2764E0"/>
<stop offset="1" stop-color="#DD0858"/>
</linearGradient>
<linearGradient id="paint2_linear_32_41" x1="41.6667" y1="3" x2="15.6666" y2="50.9998" gradientUnits="userSpaceOnUse">
<stop stop-color="#2764E0"/>
<stop offset="1" stop-color="#DD0858"/>
</linearGradient>
</defs>
</svg>
