<svg width="48" height="48" viewBox="0 0 48 48" fill="none" xmlns="http://www.w3.org/2000/svg">
<path d="M40.4 6H36V4C36 3.46957 35.7893 2.96086 35.4142 2.58579C35.0391 2.21071 34.5304 2 34 2C33.4696 2 32.9609 2.21071 32.5858 2.58579C32.2107 2.96086 32 3.46957 32 4V6H26V4C26 3.46957 25.7893 2.96086 25.4142 2.58579C25.0391 2.21071 24.5304 2 24 2C23.4696 2 22.9609 2.21071 22.5858 2.58579C22.2107 2.96086 22 3.46957 22 4V6H16V4C16 3.46957 15.7893 2.96086 15.4142 2.58579C15.0391 2.21071 14.5304 2 14 2C13.4696 2 12.9609 2.21071 12.5858 2.58579C12.2107 2.96086 12 3.46957 12 4V6H7.6C6.11479 6 4.69041 6.59 3.6402 7.6402C2.59 8.69041 2 10.1148 2 11.6V40.4C2 41.1354 2.14485 41.8636 2.42627 42.543C2.7077 43.2225 3.12019 43.8398 3.6402 44.3598C4.16021 44.8798 4.77755 45.2923 5.45697 45.5737C6.1364 45.8552 6.8646 46 7.6 46H40.4C41.1354 46 41.8636 45.8552 42.543 45.5737C43.2225 45.2923 43.8398 44.8798 44.3598 44.3598C44.8798 43.8398 45.2923 43.2225 45.5737 42.543C45.8552 41.8636 46 41.1354 46 40.4V11.6C46 10.8646 45.8552 10.1364 45.5737 9.45697C45.2923 8.77755 44.8798 8.16021 44.3598 7.6402C43.8398 7.12019 43.2225 6.7077 42.543 6.42627C41.8636 6.14485 41.1354 6 40.4 6ZM33.4 23.414L23.4 33.414C23.0249 33.7889 22.5163 33.9996 21.986 33.9996C21.4557 33.9996 20.9471 33.7889 20.572 33.414L14.572 27.414C14.381 27.2295 14.2286 27.0088 14.1238 26.7648C14.019 26.5208 13.9638 26.2584 13.9615 25.9928C13.9592 25.7272 14.0098 25.4639 14.1104 25.2181C14.2109 24.9723 14.3594 24.749 14.5472 24.5612C14.735 24.3734 14.9583 24.2249 15.2041 24.1244C15.4499 24.0238 15.7132 23.9732 15.9788 23.9755C16.2444 23.9778 16.5068 24.033 16.7508 24.1378C16.9948 24.2426 17.2155 24.395 17.4 24.586L22 29.172L30.586 20.586C30.9632 20.2217 31.4684 20.0201 31.9928 20.0247C32.5172 20.0292 33.0188 20.2395 33.3896 20.6104C33.7605 20.9812 33.9708 21.4828 33.9753 22.0072C33.9799 22.5316 33.7783 23.0368 33.414 23.414H33.4Z" fill="url(#paint0_linear_32_723)"/>
<defs>
<linearGradient id="paint0_linear_32_723" x1="10.5555" y1="2" x2="34.3889" y2="45.9998" gradientUnits="userSpaceOnUse">
<stop stop-color="#2764E0"/>
<stop offset="1" stop-color="#DD0858"/>
</linearGradient>
</defs>
</svg>
