<svg width="48" height="48" viewBox="0 0 48 48" fill="none" xmlns="http://www.w3.org/2000/svg">
<g clip-path="url(#clip0_32_1741)">
<path d="M24 4.96554C19.7927 4.96554 15.6798 6.2275 12.1815 8.59184C8.68323 10.9562 5.95665 14.3167 4.34657 18.2485C2.73649 22.1802 2.31522 26.5066 3.13603 30.6806C3.95684 34.8545 5.98287 38.6885 8.95792 41.6977C11.933 44.707 15.7234 46.7563 19.8499 47.5865C23.9764 48.4168 28.2536 47.9907 32.1407 46.3621C36.0278 44.7335 39.3502 41.9756 41.6876 38.4371C44.0251 34.8986 45.2727 30.7385 45.2727 26.4828C45.2664 20.778 43.0231 15.3088 39.0351 11.2749C35.047 7.24101 29.6399 4.97196 24 4.96554ZM34.1913 31.6359C34.0555 31.911 33.8465 32.1425 33.588 32.3042C33.3294 32.466 33.0313 32.5517 32.7273 32.5517C32.4742 32.5521 32.2246 32.4924 31.9986 32.3774L23.2713 27.9636C22.9987 27.8267 22.7693 27.6156 22.6089 27.354C22.4485 27.0923 22.3636 26.7906 22.3636 26.4828V15.4483C22.3636 15.0093 22.536 14.5883 22.8429 14.2779C23.1498 13.9675 23.566 13.7931 24 13.7931C24.434 13.7931 24.8502 13.9675 25.1571 14.2779C25.464 14.5883 25.6364 15.0093 25.6364 15.4483V25.4588L33.4582 29.4157C33.8465 29.6118 34.1418 29.9559 34.2793 30.3722C34.4168 30.7886 34.3851 31.2431 34.1913 31.6359Z" fill="url(#paint0_linear_32_1741)"/>
<path d="M10.9091 0.000225199C10.437 0.000225199 9.97767 0.1551 9.60001 0.441604L0.872736 7.06229C0.64352 7.23618 0.450408 7.45403 0.304428 7.70341C0.158448 7.95278 0.0624574 8.2288 0.0219373 8.5157C-0.0598968 9.09513 0.0891801 9.6837 0.436373 10.1519C0.783565 10.6202 1.30043 10.9297 1.87327 11.0125C2.44611 11.0953 3.02799 10.9445 3.49092 10.5933L12.2182 3.97264C12.5845 3.69472 12.8551 3.30726 12.9917 2.86514C13.1282 2.42302 13.1238 1.94866 12.979 1.50924C12.8341 1.06982 12.5563 0.687625 12.1848 0.416794C11.8133 0.145963 11.367 0.000225199 10.9091 0.000225199Z" fill="url(#paint1_linear_32_1741)"/>
<path d="M47.1273 7.06209L38.4 0.4414C38.0233 0.153014 37.5633 -0.00207845 37.0909 2.10381e-05C36.633 2.10381e-05 36.1867 0.145758 35.8152 0.41659C35.4437 0.687421 35.1659 1.06962 35.0211 1.50903C34.8762 1.94845 34.8718 2.42282 35.0083 2.86494C35.1449 3.30706 35.4155 3.69452 35.7818 3.97243L44.5091 10.5931C44.8856 10.8818 45.3457 11.0369 45.8182 11.0345C46.2761 11.0345 46.7224 10.8888 47.0939 10.6179C47.4654 10.3471 47.7432 9.9649 47.888 9.52548C48.0328 9.08606 48.0373 8.6117 47.9008 8.16958C47.7642 7.72746 47.4936 7.34 47.1273 7.06209Z" fill="url(#paint2_linear_32_1741)"/>
</g>
<defs>
<linearGradient id="paint0_linear_32_1741" x1="9.33326" y1="5.95591e-07" x2="35.3334" y2="47.9998" gradientUnits="userSpaceOnUse">
<stop stop-color="#2764E0"/>
<stop offset="1" stop-color="#DD0858"/>
</linearGradient>
<linearGradient id="paint1_linear_32_1741" x1="9.33326" y1="5.95591e-07" x2="35.3334" y2="47.9998" gradientUnits="userSpaceOnUse">
<stop stop-color="#2764E0"/>
<stop offset="1" stop-color="#DD0858"/>
</linearGradient>
<linearGradient id="paint2_linear_32_1741" x1="9.33326" y1="5.95591e-07" x2="35.3334" y2="47.9998" gradientUnits="userSpaceOnUse">
<stop stop-color="#2764E0"/>
<stop offset="1" stop-color="#DD0858"/>
</linearGradient>
<clipPath id="clip0_32_1741">
<rect width="48" height="48" fill="white"/>
</clipPath>
</defs>
</svg>
