<svg width="48" height="48" viewBox="0 0 48 48" fill="none" xmlns="http://www.w3.org/2000/svg">
<path fill-rule="evenodd" clip-rule="evenodd" d="M22.5 9V24C22.5 24.828 23.172 25.5 24 25.5H39C39.828 25.5 40.5 26.172 40.5 27C40.5 37.77 31.77 46.5 21 46.5C10.2375 46.5 1.5 37.7625 1.5 27C1.5 16.23 10.23 7.5 21 7.5C21.828 7.5 22.5 8.172 22.5 9ZM45 22.5H30C27.5145 22.5 25.5 20.4855 25.5 18V3C25.5 2.172 26.172 1.5 27 1.5C37.7625 1.5 46.5 10.2375 46.5 21C46.5 21.828 45.828 22.5 45 22.5Z" fill="url(#paint0_linear_32_1876)"/>
<defs>
<linearGradient id="paint0_linear_32_1876" x1="10.2499" y1="1.5" x2="34.625" y2="46.4998" gradientUnits="userSpaceOnUse">
<stop stop-color="#2764E0"/>
<stop offset="1" stop-color="#DD0858"/>
</linearGradient>
</defs>
</svg>
