<svg width="48" height="48" viewBox="0 0 48 48" fill="none" xmlns="http://www.w3.org/2000/svg">
<path d="M39.9599 17.16V37.68C43.7377 37.68 46.7999 34.6177 46.7999 30.84V8.03995C46.7999 4.26233 43.7377 1.19995 39.9599 1.19995H17.16C13.3823 1.19995 10.32 4.26233 10.32 8.03995H30.84C35.8767 8.03995 39.9599 12.1231 39.9599 17.16Z" fill="url(#paint0_linear_32_1367)"/>
<path fill-rule="evenodd" clip-rule="evenodd" d="M8.03995 46.7999C4.26233 46.7999 1.19995 43.7377 1.19995 39.9599V17.16C1.19995 13.3823 4.26233 10.32 8.03995 10.32H30.84C34.6177 10.32 37.68 13.3823 37.68 17.16V39.9599C37.68 43.7377 34.6177 46.7999 30.84 46.7999H8.03995ZM17.1956 37.6797C16.4905 37.6907 15.8201 37.3749 15.3796 36.8243L10.8196 31.1243C10.0329 30.1409 10.1924 28.7061 11.1756 27.9195C12.1589 27.1329 13.5937 27.2923 14.3803 28.2756L17.1018 31.6774L25.596 20.3519C26.3515 19.3446 27.7806 19.1404 28.788 19.896C29.7953 20.6515 29.9995 22.0806 29.2439 23.088L18.9839 36.7679C18.5609 37.332 17.9006 37.6686 17.1956 37.6797Z" fill="url(#paint1_linear_32_1367)"/>
<defs>
<linearGradient id="paint0_linear_32_1367" x1="10.0665" y1="1.19995" x2="34.7666" y2="46.7998" gradientUnits="userSpaceOnUse">
<stop stop-color="#2764E0"/>
<stop offset="1" stop-color="#DD0858"/>
</linearGradient>
<linearGradient id="paint1_linear_32_1367" x1="10.0665" y1="1.19995" x2="34.7666" y2="46.7998" gradientUnits="userSpaceOnUse">
<stop stop-color="#2764E0"/>
<stop offset="1" stop-color="#DD0858"/>
</linearGradient>
</defs>
</svg>
