<svg width="48" height="48" viewBox="0 0 48 48" fill="none" xmlns="http://www.w3.org/2000/svg">
<g clip-path="url(#clip0_32_56)">
<path d="M23.9792 0C10.7245 0.0114736 -0.0114645 10.7659 9.18797e-06 24.0208C0.0114828 37.2756 10.7659 48.0115 24.0208 48C37.2675 47.9885 48 37.2468 48 24C47.9772 10.7465 37.2328 0.0113764 23.9792 0ZM33.8324 21.6145L33.8117 21.6352L24.4772 38.5202C24.3065 38.8424 23.9705 39.0424 23.606 39.0388H23.3155C22.8776 38.8986 22.5883 38.4817 22.6103 38.0224L23.0874 27.9619H14.9975C14.6513 27.9581 14.3308 27.7783 14.147 27.4847C13.9648 27.1779 13.9648 26.7959 14.147 26.489L23.4815 9.47956C23.7059 9.06379 24.1872 8.85756 24.6432 8.98173C25.0767 9.12787 25.3633 9.54082 25.3484 9.99812L24.892 20.0588H32.9819C33.3403 20.0582 33.6687 20.2585 33.8324 20.5773C34.0479 20.8895 34.0479 21.3024 33.8324 21.6145Z" fill="url(#paint0_linear_32_56)"/>
</g>
<defs>
<linearGradient id="paint0_linear_32_56" x1="9.33326" y1="5.95591e-07" x2="35.3334" y2="47.9998" gradientUnits="userSpaceOnUse">
<stop stop-color="#2764E0"/>
<stop offset="1" stop-color="#DD0858"/>
</linearGradient>
<clipPath id="clip0_32_56">
<rect width="48" height="48" fill="white"/>
</clipPath>
</defs>
</svg>
