<svg width="48" height="48" viewBox="0 0 48 48" fill="none" xmlns="http://www.w3.org/2000/svg">
<path d="M24 2C19.6488 2 15.3953 3.29028 11.7775 5.70767C8.15958 8.12506 5.33979 11.561 3.67466 15.581C2.00953 19.6009 1.57386 24.0244 2.42273 28.292C3.27161 32.5596 5.36691 36.4796 8.44366 39.5564C11.5204 42.6331 15.4404 44.7284 19.708 45.5773C23.9756 46.4262 28.3991 45.9905 32.419 44.3254C36.439 42.6602 39.875 39.8404 42.2923 36.2225C44.7097 32.6047 46 28.3512 46 24C45.9931 18.1674 43.6731 12.5756 39.5488 8.45125C35.4244 4.32694 29.8327 2.00688 24 2ZM31.414 31.414C31.039 31.7889 30.5303 31.9996 30 31.9996C29.4697 31.9996 28.9611 31.7889 28.586 31.414L22.586 25.414C22.2109 25.039 22.0001 24.5304 22 24V12C22 11.4696 22.2107 10.9609 22.5858 10.5858C22.9609 10.2107 23.4696 10 24 10C24.5304 10 25.0392 10.2107 25.4142 10.5858C25.7893 10.9609 26 11.4696 26 12V23.172L31.414 28.586C31.789 28.9611 31.9996 29.4697 31.9996 30C31.9996 30.5303 31.789 31.0389 31.414 31.414Z" fill="url(#paint0_linear_32_1361)"/>
<defs>
<linearGradient id="paint0_linear_32_1361" x1="10.5555" y1="2" x2="34.3889" y2="45.9999" gradientUnits="userSpaceOnUse">
<stop stop-color="#2764E0"/>
<stop offset="1" stop-color="#DD0858"/>
</linearGradient>
</defs>
</svg>
