<svg width="246" height="42" viewBox="0 0 246 42" fill="none" xmlns="http://www.w3.org/2000/svg">
<g clip-path="url(#clip0_32_1774)">
<path d="M67.4223 17.9118C66.488 17.5484 65.266 17.4395 63.9363 17.4395H56.5325V15.1142H69.2553V11.1177H51.3213V28.412H63.469C65.1583 28.412 66.4158 28.2667 67.3505 27.9032C69.3273 27.1401 70.657 25.2872 70.657 22.853C70.657 20.3826 69.399 18.6748 67.4223 17.9118ZM64.8347 23.9066C64.5472 24.0157 64.1518 24.0519 63.6485 24.0519H56.5325V21.2907H63.6485C64.2238 21.2907 64.6908 21.3273 65.0504 21.5088C65.4815 21.7268 65.6972 22.1265 65.6972 22.635C65.6972 23.1436 65.4457 23.6886 64.8347 23.9066Z" fill="#131313"/>
<path d="M85.269 11.1176H77.6499L70.6416 28.4118H76.5358L77.5061 25.9049H85.4127L86.4192 28.4118H92.2774L85.269 11.1176ZM78.7999 22.0898L81.2799 15.1141H81.6751L84.155 22.0898H78.7999Z" fill="#131313"/>
<path d="M98.9845 21.9811V28.4119H93.7734V11.1176H98.9845V17.4394H107.359V11.1176H112.57V28.4119H107.359V21.9811H98.9845Z" fill="#131313"/>
<path d="M120.819 21.8721V28.4119H115.607V11.1176H120.819V17.6211H122.256L128.546 11.1176H135.087L126.749 19.4014L135.41 28.4119H128.474L122.256 21.8721H120.819Z" fill="#131313"/>
<path d="M0 0H41.5459V21.123C41.5459 26.538 38.6883 31.5418 34.0498 34.2496L20.7729 42L7.4961 34.2496C2.85745 31.5418 0 26.538 0 21.123V0Z" fill="#FDDC2E"/>
<path fill-rule="evenodd" clip-rule="evenodd" d="M11.4023 11.1177V17.6874C12.291 16.6729 13.9067 15.9863 15.7541 15.9863H17.7617V23.6235C17.7617 25.6553 17.2157 27.4338 16.4054 28.412H25.138C24.3295 27.4328 23.7846 25.6566 23.7846 23.6274V15.9863H25.7923C27.6397 15.9863 29.2554 16.6729 30.1441 17.6874V11.1177H11.4023Z" fill="#131313"/>
<path d="M144.432 10.5H142.742V29.0292H144.432V10.5Z" fill="#131313"/>
<path d="M202.605 13.5784V18.7639H211.952V13.5784H213.983V25.9004H211.952V20.5192H202.605V25.9004H200.591V13.5784H202.605Z" fill="#131313"/>
<path d="M228.933 13.5781V15.1853H218.922V18.8283H228.447V20.2305H218.922V24.293H228.933V25.9002H216.908V13.5781H228.933Z" fill="#131313"/>
<path d="M163.003 18.0568L156.213 18.0568V15.1093H166.383V13.5784H154.217V25.9004L163.003 25.9004C166.341 25.9004 167.687 23.7121 167.687 21.8804C167.687 20.0487 166.341 18.0568 163.003 18.0568ZM163.126 24.229C161.398 24.229 156.213 24.2291 156.213 24.2291V19.5317H163.126C164.409 19.5317 165.893 20.3195 165.893 21.8804C165.893 23.451 164.409 24.229 163.126 24.229Z" fill="#131313"/>
<path d="M180.428 13.5782L171.701 23.3544V13.5782H169.704V25.9004H171.468L180.195 16.1249V25.9004H182.191V13.5782H180.428Z" fill="#131313"/>
<path d="M243.875 21.469C243.35 23.3798 241.033 24.6892 238.442 24.6892C235.187 24.6892 232.896 22.4952 232.896 19.7348C232.896 16.9748 235.187 14.8161 238.442 14.8161C241.033 14.8161 243.298 16.0901 243.823 17.9655H246C245.275 15.1585 242.648 13.2024 238.614 13.2024C233.738 13.1505 230.736 16.0042 230.736 19.7395C230.736 23.4233 233.738 26.277 238.614 26.277C242.707 26.2524 245.247 24.3078 245.977 21.469H243.875Z" fill="#131313"/>
<path d="M195.89 19.5464C197.165 19.0053 198.007 18.0768 198.007 16.6585C198.007 15.2915 197.037 14.1572 195.226 13.641C194.435 13.4089 193.262 13.2024 191.629 13.2024C190.176 13.2024 188.849 13.332 187.573 13.7699C185.967 14.3117 184.921 15.4979 184.716 17.0964H186.876C186.992 16.4588 187.376 15.7435 188.393 15.2981C189.136 14.9728 190.289 14.8162 191.561 14.8162C194.809 14.8162 195.855 15.7312 195.855 16.9323C195.855 18.0482 194.859 18.8509 191.945 18.8509H188.276V20.4647H192.239C194.018 20.4647 194.611 20.4635 195.162 20.6768C195.841 20.8901 196.349 21.4451 196.349 22.2995C196.349 23.2423 196.015 24.6892 191.518 24.6892C189.951 24.6892 188.811 24.4628 188.176 24.1634C187.539 23.8653 186.91 23.3322 186.774 22.3561L184.614 22.3574C184.819 24.1368 185.864 25.2197 187.343 25.7616C188.339 26.1226 189.818 26.2771 191.527 26.2771C193.644 26.2771 194.716 26.0713 195.583 25.8129C197.318 25.2974 198.339 24.0335 198.339 22.4351C198.339 21.0424 197.445 19.9338 195.89 19.5464Z" fill="#131313"/>
</g>
<defs>
<clipPath id="clip0_32_1774">
<rect width="246" height="42" fill="white"/>
</clipPath>
</defs>
</svg>
