<svg width="16" height="16" viewBox="0 0 16 16" fill="none" xmlns="http://www.w3.org/2000/svg">
<path d="M0.266939 0.266928C-0.0889797 0.622831 -0.0889797 1.19988 0.266939 1.55578L6.71116 8.00007L0.267088 14.4442C-0.0888314 14.8001 -0.0888314 15.3772 0.267088 15.7331C0.622932 16.089 1.20001 16.089 1.55593 15.7331L8 9.28893L14.4441 15.7331C14.8 16.089 15.377 16.089 15.7329 15.7331C16.0888 15.3772 16.0888 14.8001 15.7329 14.4442L9.28884 8.00007L15.7331 1.55578C16.089 1.19988 16.089 0.62285 15.7331 0.266946C15.3771 -0.0889573 14.8001 -0.0889573 14.4442 0.266946L8 6.71122L1.55578 0.266928C1.19986 -0.0889759 0.622858 -0.0889759 0.266939 0.266928Z" fill="#9295AE"/>
</svg>
